<svg width="73" height="72" viewBox="0 0 73 72" fill="none" xmlns="http://www.w3.org/2000/svg">
<g clip-path="url(#clip0_1_137)">
<path d="M36.5 6.75V9H9.5V6.75C9.5 4.26375 11.5138 2.25 14 2.25H32C34.4862 2.25 36.5 4.26375 36.5 6.75Z" fill="#AAB2BD"/>
<path d="M36.5 36V40.5C36.5 42.9862 34.4862 45 32 45H14C11.5138 45 9.5 42.9862 9.5 40.5V36H36.5Z" fill="#AAB2BD"/>
<path d="M36.5 25.875V36H9.5V25.875V21.375V9H36.5V21.375V25.875Z" fill="#69D6F4"/>
<path d="M32 31.5H14C14 26.5275 18.0275 22.5 23 22.5C25.4862 22.5 27.7362 23.5125 29.3675 25.1325C30.9875 26.7638 32 29.0138 32 31.5Z" fill="#E6E9ED"/>
<path d="M23 22.5C25.4853 22.5 27.5 20.4853 27.5 18C27.5 15.5147 25.4853 13.5 23 13.5C20.5147 13.5 18.5 15.5147 18.5 18C18.5 20.4853 20.5147 22.5 23 22.5Z" fill="#F0D0B4"/>
<path d="M62.2962 2.25C60.1812 2.25 58.1675 3.0825 56.6713 4.57875L55.625 5.625L54.5787 4.57875C53.0825 3.0825 51.0687 2.25 48.9537 2.25C44.5887 2.25 41.045 5.77125 41 10.125V10.2037V10.935C41 13.275 42.035 15.4913 43.8125 17.01L55.625 27L67.4375 17.01C69.1362 15.5588 70.16 13.4775 70.2388 11.25C70.25 11.1488 70.25 11.0363 70.25 10.935V10.2037C70.25 5.81625 66.6838 2.25 62.2962 2.25Z" fill="#FF826E"/>
<path d="M63.5 39.375C63.5 42.9412 61.1263 45.9562 57.875 46.9237V45C57.875 44.3812 57.6275 43.8187 57.2113 43.4137C56.8063 42.9975 56.2437 42.75 55.625 42.75C54.3875 42.75 53.375 43.7625 53.375 45V46.9125H53.33C50.1012 45.9225 47.75 42.9187 47.75 39.375C47.75 35.0212 51.2713 31.5 55.625 31.5C59.9788 31.5 63.5 35.0212 63.5 39.375Z" fill="#FFEAA7"/>
<g clip-path="url(#clip1_1_137)">
<path d="M57.875 46.9237V51.75H55.625H53.375V46.9125V45C53.375 43.7625 54.3875 42.75 55.625 42.75C56.2438 42.75 56.8062 42.9975 57.2112 43.4138C57.6275 43.8188 57.875 44.3812 57.875 45V46.9237Z" fill="#FCD770"/>
<path d="M43.25 23.625V25.875H36.5V21.375H43.25V23.625Z" fill="#FCD770"/>
<path d="M9.5 21.375V25.875H2.75V23.625V21.375H9.5Z" fill="#FCD770"/>
</g>
<path d="M33.125 32.625V31.5C33.125 27.261 30.5037 23.6273 26.7991 22.1209C27.914 21.0926 28.625 19.6324 28.625 18C28.625 14.8984 26.1016 12.375 23 12.375C19.8984 12.375 17.375 14.8984 17.375 18C17.375 19.6324 18.086 21.0926 19.2009 22.1209C15.4962 23.6273 12.875 27.261 12.875 31.5V32.625H33.125ZM19.625 18C19.625 16.1392 21.1392 14.625 23 14.625C24.8608 14.625 26.375 16.1392 26.375 18C26.375 19.8608 24.8608 21.375 23 21.375C21.1392 21.375 19.625 19.8608 19.625 18ZM23 23.625C26.9611 23.625 30.2473 26.5635 30.7951 30.375H15.2049C15.7527 26.5635 19.0389 23.625 23 23.625Z" fill="black"/>
<path d="M18.5 39.375H27.5V41.625H18.5V39.375Z" fill="black"/>
<path d="M62.2951 1.125C59.8708 1.125 57.5893 2.07 55.8748 3.7845L55.625 4.03425L55.3752 3.7845C53.6607 2.07 51.3804 1.125 48.9549 1.125C43.9486 1.125 39.875 5.19863 39.875 10.2049V10.935C39.875 13.6103 41.0473 16.137 43.0903 17.8661L55.625 28.4737L68.1597 17.8673C70.2027 16.1381 71.375 13.6114 71.375 10.9361V10.2049C71.375 5.19863 67.3014 1.125 62.2951 1.125ZM48.9549 3.375C50.7785 3.375 52.4941 4.086 53.7845 5.37525L55.625 7.21575L57.4655 5.37525C58.7548 4.086 60.4715 3.375 62.2951 3.375C66.0346 3.375 69.0778 6.39563 69.1216 10.125H60.44L58.7919 15.0682L55.8174 9.11925L52.3546 13.7362L49.5118 9H42.2375C42.8101 5.80725 45.6012 3.375 48.9549 3.375ZM66.7074 16.1482L55.625 25.5263L44.5426 16.1482C43.0869 14.9152 42.2285 13.1445 42.1419 11.25H48.2371L52.1454 17.7638L55.4326 13.3807L59.2081 20.9318L62.0611 12.375H68.9709C68.6559 13.8352 67.8706 15.1639 66.7074 16.1482Z" fill="black"/>
<path d="M55.625 30.375C50.6626 30.375 46.625 34.4126 46.625 39.375C46.625 43.0897 48.8638 46.3219 52.25 47.6899V52.875H54.5V64.125C54.5 66.6068 52.4818 68.625 50 68.625C47.5182 68.625 45.5 66.6068 45.5 64.125V61.875C45.5 58.1524 42.4726 55.125 38.75 55.125C35.0274 55.125 32 58.1524 32 61.875V64.6875C32 66.8587 30.2337 68.625 28.0625 68.625C25.8913 68.625 24.125 66.8587 24.125 64.6875V56.1926C35.3874 55.602 44.375 46.2814 44.375 34.875V27V23.625V20.25H37.625V6.75C37.625 3.64838 35.1016 1.125 32 1.125H14C10.8984 1.125 8.375 3.64838 8.375 6.75V20.25H1.625V23.625V27V34.875C1.625 46.2814 10.6126 55.602 21.875 56.1926V64.6875C21.875 68.0985 24.6515 70.875 28.0625 70.875C31.4735 70.875 34.25 68.0985 34.25 64.6875V61.875C34.25 59.3932 36.2682 57.375 38.75 57.375C41.2318 57.375 43.25 59.3932 43.25 61.875V64.125C43.25 67.8476 46.2774 70.875 50 70.875C53.7226 70.875 56.75 67.8476 56.75 64.125V52.875H59V47.6876C62.3435 46.3241 64.625 43.0369 64.625 39.375C64.625 34.4126 60.5874 30.375 55.625 30.375ZM42.125 22.5V23.625V24.75H37.625V22.5H42.125ZM10.625 37.125H35.375V40.5C35.375 42.3607 33.8607 43.875 32 43.875H14C12.1392 43.875 10.625 42.3607 10.625 40.5V37.125ZM35.375 34.875H10.625V10.125H35.375V34.875ZM14 3.375H32C33.8607 3.375 35.375 4.88925 35.375 6.75V7.875H10.625V6.75C10.625 4.88925 12.1392 3.375 14 3.375ZM3.875 22.5H8.375V24.75H3.875V23.625V22.5ZM3.875 34.875V27H8.375V40.5C8.375 43.6016 10.8984 46.125 14 46.125H32C35.1016 46.125 37.625 43.6016 37.625 40.5V27H42.125V34.875C42.125 45.4207 33.5457 54 23 54C12.4543 54 3.875 45.4207 3.875 34.875ZM56.75 50.625H54.5V45C54.5 44.379 55.004 43.875 55.625 43.875C56.246 43.875 56.75 44.379 56.75 45V50.625ZM59 45.1958V45C59 43.1393 57.4857 41.625 55.625 41.625C53.7643 41.625 52.25 43.1393 52.25 45V45.2025C50.1924 44.0179 48.875 41.8387 48.875 39.375C48.875 35.6524 51.9024 32.625 55.625 32.625C59.3476 32.625 62.375 35.6524 62.375 39.375C62.375 41.8005 61.0363 44.0044 59 45.1958Z" fill="black"/>
</g>
<defs>
<clipPath id="clip0_1_137">
<rect width="72" height="72" fill="white" transform="translate(0.5)"/>
</clipPath>
<clipPath id="clip1_1_137">
<rect width="55.125" height="30.375" fill="white" transform="translate(2.75 21.375)"/>
</clipPath>
</defs>
</svg>
