<svg width="73" height="72" viewBox="0 0 73 72" fill="none" xmlns="http://www.w3.org/2000/svg">
<g clip-path="url(#clip0_1_80)">
<g clip-path="url(#clip1_1_80)">
<g clip-path="url(#clip2_1_80)">
<g clip-path="url(#clip3_1_80)">
<path d="M53.375 65.25V68.625C53.375 69.2438 52.8688 69.75 52.25 69.75H20.75C20.1312 69.75 19.625 69.2438 19.625 68.625V65.25H29.75H43.25H53.375Z" fill="#969FAA"/>
</g>
<g clip-path="url(#clip4_1_80)">
<path d="M29.75 60.75V65.25H19.625V63C19.625 61.7625 20.6375 60.75 21.875 60.75H29.75Z" fill="#969FAA"/>
</g>
<g clip-path="url(#clip5_1_80)">
<path d="M53.375 63V65.25H43.25V60.75H51.125C52.3625 60.75 53.375 61.7625 53.375 63Z" fill="#969FAA"/>
</g>
<g clip-path="url(#clip6_1_80)">
<path d="M43.25 60.75V65.25H29.75V60.75V56.25H43.25V60.75Z" fill="#AAB2BD"/>
</g>
<g clip-path="url(#clip7_1_80)">
<path d="M68 47.25V54C68 55.2375 66.9875 56.25 65.75 56.25H43.25H29.75H5C3.7625 56.25 2.75 55.2375 2.75 54V47.25H7.25H25.25H43.25H68Z" fill="#CCD1D9"/>
</g>
<g clip-path="url(#clip8_1_80)">
<path d="M68 47.25H2.75V13.5C2.75 12.2569 3.75688 11.25 5 11.25H68V47.25Z" fill="#69D6F4"/>
</g>
<g clip-path="url(#clip9_1_80)">
<path d="M50 38.25H54.5V42.75H50V38.25Z" fill="#FF826E"/>
</g>
<g clip-path="url(#clip10_1_80)">
<path d="M59 29.25H63.5V33.75H59V29.25Z" fill="#FF826E"/>
</g>
<g clip-path="url(#clip11_1_80)">
<path d="M59 38.25H63.5V42.75H59V38.25Z" fill="#B4DD7F"/>
</g>
<g clip-path="url(#clip12_1_80)">
<path d="M50 29.25H54.5V33.75H50V29.25Z" fill="#B4DD7F"/>
</g>
<g clip-path="url(#clip13_1_80)">
<path d="M17.375 18C17.375 18.5625 17.4312 19.1137 17.5437 19.6425L17.51 19.6537L16.7 19.17C14.3262 17.7412 12.875 15.1875 12.875 12.42V12.375C12.875 11.9925 12.8975 11.6212 12.9425 11.25C13.4938 6.1875 17.7912 2.25 23 2.25H36.5C37.1187 2.25 37.6812 2.4975 38.0863 2.91375C38.5025 3.31875 38.75 3.88125 38.75 4.5C38.75 6.21 38.12 7.79625 37.0513 9.01125C36.095 10.125 34.7675 10.9237 33.2375 11.2275L33.125 11.25H29.1875C26.5775 11.25 23.9675 10.9237 21.425 10.2937C20.975 10.1812 20.5137 10.125 20.0525 10.125C18.5675 10.125 17.375 11.3175 17.375 12.8025V18Z" fill="#B27946"/>
</g>
<g clip-path="url(#clip14_1_80)">
<path d="M37.5575 11.25C37.6025 11.6212 37.625 11.9925 37.625 12.375V12.42C37.625 15.1875 36.1738 17.7412 33.8 19.17L32.99 19.6537C33.08 19.1925 33.125 18.72 33.125 18.2362V11.25L33.2375 11.2275C34.7675 10.9237 36.095 10.125 37.0513 9.01123C37.2988 9.73123 37.4788 10.4737 37.5575 11.25Z" fill="#B27946"/>
</g>
<g clip-path="url(#clip15_1_80)">
<path d="M34.79 28.9688L34.25 28.8788L29.75 28.125L25.25 34.875L20.75 28.125L16.25 28.8788L15.71 28.9688C10.8275 29.7788 7.25 33.9975 7.25 38.9475V47.25H25.25H43.25V38.9475C43.25 33.9975 39.6725 29.7788 34.79 28.9688Z" fill="#E6E9ED"/>
</g>
<g clip-path="url(#clip16_1_80)">
<path d="M34.25 42.75C35.4926 42.75 36.5 41.7426 36.5 40.5C36.5 39.2574 35.4926 38.25 34.25 38.25C33.0074 38.25 32 39.2574 32 40.5C32 41.7426 33.0074 42.75 34.25 42.75Z" fill="#FCD770"/>
</g>
<g clip-path="url(#clip17_1_80)">
<path d="M21.5487 24.9525C22.6625 25.5375 23.9338 25.875 25.2838 25.875H25.4862C26.735 25.875 27.9275 25.5713 28.9737 25.0313L29.75 28.125L25.25 34.875L20.75 28.125L21.5487 24.9525Z" fill="#F0D0B4"/>
</g>
<g clip-path="url(#clip18_1_80)">
<path d="M21.5487 24.9525C19.5237 23.8725 18.0387 21.9487 17.5437 19.6425C17.4312 19.1137 17.375 18.5625 17.375 18V12.8025C17.375 11.3175 18.5675 10.125 20.0525 10.125C20.5137 10.125 20.975 10.1812 21.425 10.2937C23.9675 10.9237 26.5775 11.25 29.1875 11.25H33.125V18.2362C33.125 18.72 33.08 19.1925 32.99 19.6537C32.5512 22.005 31.0325 23.9738 28.9737 25.0312C27.9275 25.5712 26.735 25.875 25.4862 25.875H25.2838C23.9338 25.875 22.6625 25.5375 21.5487 24.9525Z" fill="#F0D0B4"/>
</g>
<g clip-path="url(#clip19_1_80)">
<path d="M70.25 4.5V22.5C70.25 23.7375 69.2375 24.75 68 24.75H48.875L45.95 28.6537C45.6688 29.025 45.2188 29.25 44.7463 29.25C43.925 29.25 43.25 28.575 43.25 27.7537V11.25V4.5C43.25 3.2625 44.2625 2.25 45.5 2.25H68C69.2375 2.25 70.25 3.2625 70.25 4.5Z" fill="#E6E9ED"/>
</g>
<g clip-path="url(#clip20_1_80)">
<path d="M63.5 12.375V14.625C63.5 15.2437 62.9937 15.75 62.375 15.75H59V19.125C59 19.7437 58.4937 20.25 57.875 20.25H55.625C55.0062 20.25 54.5 19.7437 54.5 19.125V15.75H51.125C50.5062 15.75 50 15.2437 50 14.625V12.375C50 11.7562 50.5062 11.25 51.125 11.25H54.5V7.875C54.5 7.25625 55.0062 6.75 55.625 6.75H57.875C58.4937 6.75 59 7.25625 59 7.875V11.25H62.375C62.9937 11.25 63.5 11.7562 63.5 12.375Z" fill="#FCD770"/>
</g>
</g>
<g clip-path="url(#clip21_1_80)">
<path d="M21.875 16.875C22.4963 16.875 23 16.3713 23 15.75C23 15.1287 22.4963 14.625 21.875 14.625C21.2537 14.625 20.75 15.1287 20.75 15.75C20.75 16.3713 21.2537 16.875 21.875 16.875Z" fill="black"/>
<path d="M28.625 16.875C29.2463 16.875 29.75 16.3713 29.75 15.75C29.75 15.1287 29.2463 14.625 28.625 14.625C28.0037 14.625 27.5 15.1287 27.5 15.75C27.5 16.3713 28.0037 16.875 28.625 16.875Z" fill="black"/>
<path d="M27.5 18.8595C27.0714 19.7167 26.2096 20.25 25.25 20.25C24.2904 20.25 23.4286 19.7167 23 18.8595L22.8819 18.6221L20.8692 19.629L20.9874 19.8663C21.7996 21.4908 23.4331 22.5 25.25 22.5C27.0669 22.5 28.7004 21.4908 29.5126 19.8652L29.6307 19.6278L27.6181 18.621L27.5 18.8595Z" fill="black"/>
<path d="M62.375 10.125H60.125V7.875C60.125 6.63412 59.1159 5.625 57.875 5.625H55.625C54.3841 5.625 53.375 6.63412 53.375 7.875V10.125H51.125C49.8841 10.125 48.875 11.1341 48.875 12.375V14.625C48.875 15.8659 49.8841 16.875 51.125 16.875H53.375V19.125C53.375 20.3659 54.3841 21.375 55.625 21.375H57.875C59.1159 21.375 60.125 20.3659 60.125 19.125V16.875H62.375C63.6159 16.875 64.625 15.8659 64.625 14.625V12.375C64.625 11.1341 63.6159 10.125 62.375 10.125ZM62.375 14.625H57.875V19.125H55.625V14.625H51.125V12.375H55.625V7.875H57.875V12.375L62.375 12.3784V14.625Z" fill="black"/>
<path d="M68 1.125H45.5C43.6393 1.125 42.125 2.63925 42.125 4.5V10.125H38.5149C38.4553 9.83025 38.3844 9.53887 38.3011 9.25087C39.2945 7.911 39.875 6.2595 39.875 4.5C39.875 2.63925 38.3607 1.125 36.5 1.125H23C17.5764 1.125 13.0381 4.98263 11.9818 10.125H5C3.13925 10.125 1.625 11.6392 1.625 13.5V54C1.625 55.8607 3.13925 57.375 5 57.375H28.625V59.625H21.875C20.0142 59.625 18.5 61.1393 18.5 63V68.625C18.5 69.8659 19.5091 70.875 20.75 70.875H52.25C53.4909 70.875 54.5 69.8659 54.5 68.625V63C54.5 61.1393 52.9857 59.625 51.125 59.625H44.375V57.375H65.75C67.6107 57.375 69.125 55.8607 69.125 54V25.668C70.4311 25.2022 71.375 23.9648 71.375 22.5V4.5C71.375 2.63925 69.8607 1.125 68 1.125ZM42.125 12.375V27.7504C42.125 29.1971 43.3029 30.375 44.7496 30.375C45.5709 30.375 46.3561 29.9824 46.8489 29.3254L49.4375 25.875H66.875V46.125H44.375V38.952C44.375 33.4294 40.4217 28.7629 34.9745 27.855L30.6624 27.1361L30.2709 25.569C32.0866 24.3799 33.4287 22.5371 33.9744 20.376L34.3805 20.133C37.076 18.5164 38.75 15.5599 38.75 12.375H42.125ZM15.125 36.1136C12.5611 36.6368 10.625 38.9092 10.625 41.625V43.875H12.875V41.625C12.875 39.7643 14.3892 38.25 16.25 38.25C18.1108 38.25 19.625 39.7643 19.625 41.625V43.875H21.875V41.625C21.875 38.9092 19.9389 36.6368 17.375 36.1136V29.8283L20.2179 29.3546L24.125 35.2159V46.125H8.375V38.952C8.375 34.7996 11.1706 31.2525 15.125 30.2389V36.1136ZM25.4862 24.75H25.2882C21.5454 24.75 18.5 21.7226 18.5 18V12.8003C18.5 11.9452 19.1953 11.25 20.0503 11.25C20.4226 11.25 20.7939 11.2961 21.155 11.3861C23.7808 12.042 26.4841 12.375 29.1886 12.375H32V18.2362C32 21.8284 29.0784 24.75 25.4862 24.75ZM25.2882 27H25.4862C26.4335 27 27.3447 26.8448 28.1997 26.5646L28.5373 27.9146L25.25 32.8466L21.9616 27.9146L22.316 26.4994C23.2475 26.8234 24.2476 27 25.2882 27ZM26.375 35.2159L30.2821 29.3546L33.125 29.8283V37.3331C31.8189 37.7989 30.875 39.0364 30.875 40.5011C30.875 42.3619 32.3892 43.8761 34.25 43.8761C36.1107 43.8761 37.625 42.3619 37.625 40.5011C37.625 39.0364 36.6811 37.7989 35.375 37.3331V30.2389C39.3294 31.2525 42.125 34.7996 42.125 38.952V46.125H26.375V35.2159ZM35.375 40.5C35.375 41.1199 34.8699 41.625 34.25 41.625C33.6301 41.625 33.125 41.1199 33.125 40.5C33.125 39.8801 33.6301 39.375 34.25 39.375C34.8699 39.375 35.375 39.8801 35.375 40.5ZM36.3988 11.0745C36.4618 11.5121 36.5 11.9576 36.5 12.4166C36.5 14.3392 35.6551 16.1595 34.25 17.4274V12.1297C35.0285 11.8879 35.7474 11.5234 36.3988 11.0745ZM23 3.375H36.5C37.1199 3.375 37.625 3.88013 37.625 4.5C37.625 7.22475 35.6855 9.59062 33.0136 10.125H29.1886C26.6664 10.125 24.1475 9.8145 21.7006 9.20362C21.1617 9.06862 20.606 9 20.0503 9C17.9555 9 16.25 10.7055 16.25 12.8003V17.4443C14.8393 16.1753 14 14.3347 14 12.3739C14 7.41262 18.0376 3.375 23 3.375ZM5 12.375H11.7522C11.7522 12.3885 11.75 12.402 11.75 12.4166C11.75 15.5599 13.424 18.5164 16.1195 20.1341L16.5796 20.4097C17.1635 22.5011 18.491 24.2843 20.2561 25.4678L19.8388 27.1372L15.5266 27.8561C10.0783 28.7629 6.125 33.4294 6.125 38.952V46.125H3.875V13.5C3.875 12.8801 4.38013 12.375 5 12.375ZM21.875 61.875H28.625V64.125H20.75V63C20.75 62.3801 21.2551 61.875 21.875 61.875ZM20.75 68.625V66.375H52.25V68.625H20.75ZM51.125 61.875C51.7449 61.875 52.25 62.3801 52.25 63V64.125H44.375V61.875H51.125ZM42.125 64.125H30.875V57.375H42.125V64.125ZM65.75 55.125H5C4.38013 55.125 3.875 54.6199 3.875 54V48.375H66.875V54C66.875 54.6199 66.3699 55.125 65.75 55.125ZM69.125 22.5C69.125 23.1199 68.6199 23.625 68 23.625H48.3125L45.05 27.9754C44.8565 28.2341 44.3761 28.0744 44.375 27.7493V4.5C44.375 3.88013 44.8801 3.375 45.5 3.375H68C68.6199 3.375 69.125 3.88013 69.125 4.5V22.5Z" fill="black"/>
<path d="M64.625 28.125H57.875V34.875H64.625V28.125ZM62.375 32.625H60.125V30.375H62.375V32.625Z" fill="black"/>
<path d="M64.625 37.125H57.875V43.875H64.625V37.125ZM62.375 41.625H60.125V39.375H62.375V41.625Z" fill="black"/>
<path d="M55.625 28.125H48.875V34.875H55.625V28.125ZM53.375 32.625H51.125V30.375H53.375V32.625Z" fill="black"/>
<path d="M55.625 37.125H48.875V43.875H55.625V37.125ZM53.375 41.625H51.125V39.375H53.375V41.625Z" fill="black"/>
<path d="M30.875 50.625H37.625V52.875H30.875V50.625Z" fill="black"/>
<path d="M39.875 50.625H42.125V52.875H39.875V50.625Z" fill="black"/>
</g>
</g>
</g>
<defs>
<clipPath id="clip0_1_80">
<rect width="72" height="72" fill="white" transform="translate(0.5)"/>
</clipPath>
<clipPath id="clip1_1_80">
<rect width="69.75" height="69.75" fill="white" transform="translate(1.625 1.125)"/>
</clipPath>
<clipPath id="clip2_1_80">
<rect width="67.5" height="67.5" fill="white" transform="translate(2.75 2.25)"/>
</clipPath>
<clipPath id="clip3_1_80">
<rect width="33.75" height="4.5" fill="white" transform="translate(19.625 65.25)"/>
</clipPath>
<clipPath id="clip4_1_80">
<rect width="10.125" height="4.5" fill="white" transform="translate(19.625 60.75)"/>
</clipPath>
<clipPath id="clip5_1_80">
<rect width="10.125" height="4.5" fill="white" transform="translate(43.25 60.75)"/>
</clipPath>
<clipPath id="clip6_1_80">
<rect width="13.5" height="9" fill="white" transform="translate(29.75 56.25)"/>
</clipPath>
<clipPath id="clip7_1_80">
<rect width="65.25" height="9" fill="white" transform="translate(2.75 47.25)"/>
</clipPath>
<clipPath id="clip8_1_80">
<rect width="65.25" height="36" fill="white" transform="translate(2.75 11.25)"/>
</clipPath>
<clipPath id="clip9_1_80">
<rect width="4.5" height="4.5" fill="white" transform="translate(50 38.25)"/>
</clipPath>
<clipPath id="clip10_1_80">
<rect width="4.5" height="4.5" fill="white" transform="translate(59 29.25)"/>
</clipPath>
<clipPath id="clip11_1_80">
<rect width="4.5" height="4.5" fill="white" transform="translate(59 38.25)"/>
</clipPath>
<clipPath id="clip12_1_80">
<rect width="4.5" height="4.5" fill="white" transform="translate(50 29.25)"/>
</clipPath>
<clipPath id="clip13_1_80">
<rect width="25.875" height="17.4037" fill="white" transform="translate(12.875 2.25)"/>
</clipPath>
<clipPath id="clip14_1_80">
<rect width="4.63499" height="10.6425" fill="white" transform="translate(32.99 9.01123)"/>
</clipPath>
<clipPath id="clip15_1_80">
<rect width="36" height="19.125" fill="white" transform="translate(7.25 28.125)"/>
</clipPath>
<clipPath id="clip16_1_80">
<rect width="4.5" height="4.5" fill="white" transform="translate(32 38.25)"/>
</clipPath>
<clipPath id="clip17_1_80">
<rect width="9" height="9.9225" fill="white" transform="translate(20.75 24.9525)"/>
</clipPath>
<clipPath id="clip18_1_80">
<rect width="15.75" height="15.75" fill="white" transform="translate(17.375 10.125)"/>
</clipPath>
<clipPath id="clip19_1_80">
<rect width="27" height="27" fill="white" transform="translate(43.25 2.25)"/>
</clipPath>
<clipPath id="clip20_1_80">
<rect width="13.5" height="13.5" fill="white" transform="translate(50 6.75)"/>
</clipPath>
<clipPath id="clip21_1_80">
<rect width="69.75" height="69.75" fill="white" transform="translate(1.625 1.125)"/>
</clipPath>
</defs>
</svg>
