<svg width="73" height="72" viewBox="0 0 73 72" fill="none" xmlns="http://www.w3.org/2000/svg">
<g clip-path="url(#clip0_1_159)">
<path d="M54.5 46.8V62.3999C54.5 64.3883 52.8884 65.9999 50.9 65.9999H22.1C20.1116 65.9999 18.5 64.3883 18.5 62.3999V9.6C18.5 7.61156 20.1116 6 22.1 6H50.9C52.8884 6 54.5 7.61156 54.5 9.6V46.8Z" fill="white"/>
<path d="M54.5 15.6H18.5V56.3999H54.5V15.6Z" fill="#29ABE2"/>
<path d="M6.50008 40.7999H19.7001L26.9001 45.5999V40.7999H30.5001C31.8261 40.7999 32.9002 39.726 32.9002 38.3999V23.9999C32.9002 22.6739 31.8262 21.5999 30.5001 21.5999H6.50008C5.17413 21.5999 4.10004 22.6738 4.10004 23.9999V38.3999C4.10004 39.726 5.17399 40.7999 6.50008 40.7999Z" fill="white"/>
<path d="M66.4998 46.8001H53.2998L46.0998 51.6V46.8001H42.4998C41.1738 46.8001 40.0997 45.7261 40.0997 44.4V27.6001C40.0997 26.2742 41.1737 25.2001 42.4998 25.2001H66.4998C67.8258 25.2001 68.8999 26.274 68.8999 27.6001V44.4002C68.8999 45.7261 67.8259 46.8001 66.4998 46.8001Z" fill="#E6E6E6"/>
<path d="M48.4999 33.6H52.0999V30H56.9V33.6H60.5V38.4001H56.9V42.0001H52.0999V38.4001H48.4999V33.6Z" fill="white"/>
<path d="M13.7 25.2001H11.3V27.6001H13.7V25.2001Z" fill="black"/>
<path d="M28.0999 25.2001H16.1V27.6001H28.0999V25.2001Z" fill="black"/>
<path d="M28.0999 30H8.8999V32.4H28.0999V30Z" fill="black"/>
<path d="M23.2999 34.8H8.8999V37.2001H23.2999V34.8Z" fill="black"/>
<path d="M37.7 60H35.3V62.4H37.7V60Z" fill="black"/>
<path d="M40.1 9.6001H37.7V12.0001H40.1V9.6001Z" fill="black"/>
<path d="M35.3001 9.6001H32.9001V12.0001H35.3001V9.6001Z" fill="black"/>
<path d="M17.3 9.6V20.4H6.50002C4.51159 20.4 2.90002 22.0116 2.90002 24V38.4C2.90002 40.3884 4.51159 42 6.50002 42H17.3V62.4C17.3 65.0508 19.4492 67.2 22.1 67.2H50.9C53.5508 67.2 55.6999 65.0508 55.6999 62.4V48H66.4999C68.4884 48 70.0999 46.3885 70.0999 44.4V27.6C70.0999 25.6116 68.4884 24 66.4999 24H55.6999V9.6C55.6999 6.94922 53.5508 4.80005 50.9 4.80005H22.1C19.4492 4.79991 17.3 6.94922 17.3 9.6ZM5.29993 38.4V24C5.29993 23.3377 5.83754 22.8 6.49988 22.8H30.4999C31.1623 22.8 31.6999 23.3377 31.6999 24V38.4C31.6999 39.0623 31.1623 39.6 30.4999 39.6H26.8999C26.2376 39.6 25.7 40.1376 25.7 40.7999V43.3572L20.3659 39.8016C20.1679 39.6708 19.9363 39.6 19.6999 39.6H6.50002C5.83754 39.6 5.29993 39.0623 5.29993 38.4ZM50.9 64.7999H22.1C20.774 64.7999 19.6999 63.726 19.6999 62.3999V57.6H53.2999V62.3999C53.3 63.726 52.2259 64.7999 50.9 64.7999ZM67.7 27.6V44.4C67.7 45.0624 67.1624 45.6 66.5001 45.6H53.3C53.0636 45.6 52.832 45.6707 52.634 45.8017L47.3 49.3572V46.7999C47.3 46.1376 46.7624 45.6 46.1 45.6H42.5C41.8377 45.6 41.3001 45.0624 41.3001 44.4V27.6C41.3001 26.9377 41.8377 26.4 42.5 26.4H66.5001C67.1624 26.3999 67.7 26.9375 67.7 27.6ZM42.5 24C40.5116 24 38.9 25.6116 38.9 27.6V44.4C38.9 46.3885 40.5116 48 42.5 48H44.9001V51.6C44.9001 52.2624 45.4377 52.8 46.1 52.8C46.3377 52.8 46.5693 52.7304 46.766 52.5983L53.3 48.24V55.1999H19.6999V42.2399L26.2339 46.5959C26.7848 46.9643 27.5299 46.8156 27.8984 46.2635C28.0292 46.0667 28.1 45.8362 28.1 45.5999V41.9999H30.5001C32.4885 41.9999 34.1001 40.3883 34.1001 38.3999V23.9999C34.1001 22.0114 32.4885 20.3999 30.5001 20.3999H19.7001V16.7999H53.3V23.9999H42.5V24ZM53.3 9.6V14.4H19.6999V9.6C19.6999 8.27405 20.7739 7.19996 22.1 7.19996H50.9C52.2259 7.19996 53.3 8.27391 53.3 9.6Z" fill="black"/>
<path d="M12.4999 63.6C12.5047 68.2369 16.2632 71.9952 20.8999 72V69.6C17.5879 69.5963 14.9035 66.9119 14.8998 63.5999V54H12.4999V63.6Z" fill="black"/>
<path d="M14.9 49.2001H12.4999V51.6001H14.9V49.2001Z" fill="black"/>
<path d="M60.5 8.39995C60.4952 3.76327 56.7368 0.00478125 52.0999 0H48.4999V2.40005H52.0999C55.4119 2.4037 58.0963 5.08809 58.1 8.40009V14.4H60.5V8.39995Z" fill="black"/>
<path d="M60.5 16.8H58.0999V19.2001H60.5V16.8Z" fill="black"/>
<path d="M48.4999 39.6H50.9V42.0001C50.9 42.6624 51.4376 43.2 52.0999 43.2H56.8999C57.5622 43.2 58.0998 42.6624 58.0998 42.0001V39.6H60.4999C61.1622 39.6 61.6998 39.0624 61.6998 38.4001V33.6001C61.6998 32.9378 61.1622 32.4002 60.4999 32.4002H58.1V30.0001C58.1 29.3378 57.5624 28.8002 56.9 28.8002H52.1001C51.4377 28.8002 50.9001 29.3378 50.9001 30.0001V32.4H48.5001C47.8377 32.4 47.3001 32.9376 47.3001 33.6V38.3999C47.3 39.0624 47.8376 39.6 48.4999 39.6ZM49.7 34.8001H52.1001C52.7624 34.8001 53.3 34.2625 53.3 33.6001V31.2001H55.7001V33.6001C55.7001 34.2625 56.2377 34.8001 56.9 34.8001H59.3001V37.2001H56.9C56.2377 37.2001 55.7001 37.7377 55.7001 38.4001V40.8001H53.3V38.4001C53.3 37.7377 52.7624 37.2001 52.1001 37.2001H49.7V34.8001Z" fill="black"/>
</g>
<defs>
<clipPath id="clip0_1_159">
<rect width="72" height="72" fill="white" transform="translate(0.5)"/>
</clipPath>
</defs>
</svg>
